HIERARCHY
ROOT Hips
{
	OFFSET -14.64140 90.27770 -84.91600
	CHANNELS 6 Xposition Yposition Zposition Zrotation Xrotation Yrotation
	JOINT Spine
	{
		OFFSET 0.00000 13.20850 -1.60436
		CHANNELS 3 Zrotation Xrotation Yrotation
		JOINT Spine1
		{
			OFFSET 0.00000 8.61716 0.00000
			CHANNELS 3 Zrotation Xrotation Yrotation
			JOINT Spine2
			{
				OFFSET 0.00000 8.61717 0.00000
				CHANNELS 3 Zrotation Xrotation Yrotation
				JOINT Spine3
				{
					OFFSET 0.00000 8.61717 0.00000
					CHANNELS 3 Zrotation Xrotation Yrotation
					JOINT Neck
					{
						OFFSET 0.00000 11.07920 1.10792
						CHANNELS 3 Zrotation Xrotation Yrotation
						JOINT Neck1
						{
							OFFSET 0.00000 7.08032 0.00000
							CHANNELS 3 Zrotation Xrotation Yrotation
							JOINT Head
							{
								OFFSET 0.00000 7.08031 0.00000
								CHANNELS 3 Zrotation Xrotation Yrotation
								End site
								{
									OFFSET 0.00000 0.00000 0.00000
								}
							}
						}
					}
					JOINT RightShoulder
					{
						OFFSET -0.01000 7.91373 5.19711
						CHANNELS 3 Zrotation Xrotation Yrotation
						JOINT RightArm
						{
							OFFSET -18.41580 0.00000 0.00000
							CHANNELS 3 Zrotation Xrotation Yrotation
							JOINT RightForeArm
							{
								OFFSET -29.11090 0.00000 0.00000
								CHANNELS 3 Zrotation Xrotation Yrotation
								JOINT RightHand
								{
									OFFSET -24.65040 0.00000 0.00000
									CHANNELS 3 Zrotation Xrotation Yrotation
									JOINT RightHandThumb1
									{
										OFFSET -5.35114 -0.85590 3.97906
										CHANNELS 3 Zrotation Xrotation Yrotation
										JOINT RightHandThumb2
										{
											OFFSET -4.52789 0.00000 0.00000
											CHANNELS 3 Zrotation Xrotation Yrotation
											JOINT RightHandThumb3
											{
												OFFSET -2.46976 0.00000 0.00000
												CHANNELS 3 Zrotation Xrotation Yrotation
												End site
												{
													OFFSET 0.00000 0.00000 0.00000
												}
											}
										}
									}
									JOINT RightHandIndex1
									{
										OFFSET -14.26970 0.00000 2.88139
										CHANNELS 3 Zrotation Xrotation Yrotation
										JOINT RightHandIndex2
										{
											OFFSET -5.48836 0.00000 0.00000
											CHANNELS 3 Zrotation Xrotation Yrotation
											JOINT RightHandIndex3
											{
												OFFSET -3.01859 0.00000 0.00000
												CHANNELS 3 Zrotation Xrotation Yrotation
												End site
												{
													OFFSET 0.00000 0.00000 0.00000
												}
											}
										}
									}
									JOINT RightHandMiddle1
									{
										OFFSET -14.26970 0.00000 -0.09147
										CHANNELS 3 Zrotation Xrotation Yrotation
										JOINT RightHandMiddle2
										{
											OFFSET -6.17441 0.00000 0.00000
											CHANNELS 3 Zrotation Xrotation Yrotation
											JOINT RightHandMiddle3
											{
												OFFSET -3.56743 0.00000 0.00000
												CHANNELS 3 Zrotation Xrotation Yrotation
												End site
												{
													OFFSET 0.00000 0.00000 0.00000
												}
											}
										}
									}
									JOINT RightHandRing1
									{
										OFFSET -12.69180 0.00000 -3.06433
										CHANNELS 3 Zrotation Xrotation Yrotation
										JOINT RightHandRing2
										{
											OFFSET -5.62556 0.00000 0.00000
											CHANNELS 3 Zrotation Xrotation Yrotation
											JOINT RightHandRing3
											{
												OFFSET -3.56744 0.00000 0.00000
												CHANNELS 3 Zrotation Xrotation Yrotation
												End site
												{
													OFFSET 0.00000 0.00000 0.00000
												}
											}
										}
									}
									JOINT RightHandPinky1
									{
										OFFSET -11.11390 0.00000 -6.03719
										CHANNELS 3 Zrotation Xrotation Yrotation
										JOINT RightHandPinky2
										{
											OFFSET -4.52789 0.00000 0.00000
											CHANNELS 3 Zrotation Xrotation Yrotation
											JOINT RightHandPinky3
											{
												OFFSET -2.46976 0.00000 0.00000
												CHANNELS 3 Zrotation Xrotation Yrotation
												End site
												{
													OFFSET 0.00000 0.00000 0.00000
												}
											}
										}
									}
								}
							}
						}
					}
					JOINT LeftShoulder
					{
						OFFSET 0.01000 7.91373 5.19711
						CHANNELS 3 Zrotation Xrotation Yrotation
						JOINT LeftArm
						{
							OFFSET 18.41580 0.00000 0.00000
							CHANNELS 3 Zrotation Xrotation Yrotation
							JOINT LeftForeArm
							{
								OFFSET 29.11090 0.00000 0.00000
								CHANNELS 3 Zrotation Xrotation Yrotation
								JOINT LeftHand
								{
									OFFSET 24.65040 0.00000 0.00000
									CHANNELS 3 Zrotation Xrotation Yrotation
									JOINT LeftHandThumb1
									{
										OFFSET 5.35114 -0.85590 3.97906
										CHANNELS 3 Zrotation Xrotation Yrotation
										JOINT LeftHandThumb2
										{
											OFFSET 4.52789 0.00000 0.00000
											CHANNELS 3 Zrotation Xrotation Yrotation
											JOINT LeftHandThumb3
											{
												OFFSET 2.46977 0.00000 0.00000
												CHANNELS 3 Zrotation Xrotation Yrotation
												End site
												{
													OFFSET 0.00000 0.00000 0.00000
												}
											}
										}
									}
									JOINT LeftHandIndex1
									{
										OFFSET 14.26970 0.00000 2.88139
										CHANNELS 3 Zrotation Xrotation Yrotation
										JOINT LeftHandIndex2
										{
											OFFSET 5.48836 0.00000 0.00000
											CHANNELS 3 Zrotation Xrotation Yrotation
											JOINT LeftHandIndex3
											{
												OFFSET 3.01859 0.00000 0.00000
												CHANNELS 3 Zrotation Xrotation Yrotation
												End site
												{
													OFFSET 0.00000 0.00000 0.00000
												}
											}
										}
									}
									JOINT LeftHandMiddle1
									{
										OFFSET 14.26970 0.00000 -0.09147
										CHANNELS 3 Zrotation Xrotation Yrotation
										JOINT LeftHandMiddle2
										{
											OFFSET 6.17440 0.00000 0.00000
											CHANNELS 3 Zrotation Xrotation Yrotation
											JOINT LeftHandMiddle3
											{
												OFFSET 3.56744 0.00000 0.00000
												CHANNELS 3 Zrotation Xrotation Yrotation
												End site
												{
													OFFSET 0.00000 0.00000 0.00000
												}
											}
										}
									}
									JOINT LeftHandRing1
									{
										OFFSET 12.69180 0.00000 -3.06433
										CHANNELS 3 Zrotation Xrotation Yrotation
										JOINT LeftHandRing2
										{
											OFFSET 5.62556 0.00000 0.00000
											CHANNELS 3 Zrotation Xrotation Yrotation
											JOINT LeftHandRing3
											{
												OFFSET 3.56744 0.00000 0.00000
												CHANNELS 3 Zrotation Xrotation Yrotation
												End site
												{
													OFFSET 0.00000 0.00000 0.00000
												}
											}
										}
									}
									JOINT LeftHandPinky1
									{
										OFFSET 11.11390 0.00000 -6.03719
										CHANNELS 3 Zrotation Xrotation Yrotation
										JOINT LeftHandPinky2
										{
											OFFSET 4.52789 0.00000 0.00000
											CHANNELS 3 Zrotation Xrotation Yrotation
											JOINT LeftHandPinky3
											{
												OFFSET 2.46976 0.00000 0.00000
												CHANNELS 3 Zrotation Xrotation Yrotation
												End site
												{
													OFFSET 0.00000 0.00000 0.00000
												}
											}
										}
									}
								}
							}
						}
					}
					JOINT pCube4
					{
						OFFSET 0.00000 10.91090 1.10792
						CHANNELS 3 Zrotation Xrotation Yrotation
						End site
						{
							OFFSET 0.00000 0.00000 0.00000
						}
					}
				}
			}
		}
	}
	JOINT RightUpLeg
	{
		OFFSET -9.98441 0.00000 0.00000
		CHANNELS 3 Zrotation Xrotation Yrotation
		JOINT RightLeg
		{
			OFFSET 0.00000 -42.11790 0.00000
			CHANNELS 3 Zrotation Xrotation Yrotation
			JOINT RightFoot
			{
				OFFSET 0.00000 -45.00020 -0.00001
				CHANNELS 3 Zrotation Xrotation Yrotation
				JOINT RightForeFoot
				{
					OFFSET 0.00000 -3.74820 0.00000
					CHANNELS 3 Zrotation Xrotation Yrotation
					JOINT RightToeBase
					{
						OFFSET 0.00000 0.06325 14.43120
						CHANNELS 3 Zrotation Xrotation Yrotation
						End site
						{
							OFFSET 0.00000 0.00000 0.00000
						}
					}
				}
			}
		}
	}
	JOINT LeftUpLeg
	{
		OFFSET 9.98441 0.00000 0.00000
		CHANNELS 3 Zrotation Xrotation Yrotation
		JOINT LeftLeg
		{
			OFFSET 0.00000 -42.11800 0.00000
			CHANNELS 3 Zrotation Xrotation Yrotation
			JOINT LeftFoot
			{
				OFFSET 0.00000 -45.00070 0.00000
				CHANNELS 3 Zrotation Xrotation Yrotation
				JOINT LeftForeFoot
				{
					OFFSET 0.00000 -3.74824 0.00000
					CHANNELS 3 Zrotation Xrotation Yrotation
					JOINT LeftToeBase
					{
						OFFSET 0.00000 0.06325 14.43110
						CHANNELS 3 Zrotation Xrotation Yrotation
						End site
						{
							OFFSET 0.00000 0.00000 0.00000
						}
					}
				}
			}
		}
	}
}
MOTION
Frames: 4
Frame Time: 0.050000
0.01352505376985978 -0.02136274583923695 0.032568862893267714 -0.004155159148363989 -0.005812432043579796 -0.0057689669517798515 4.901492935678731 2.879004568505623 -2.1503521058472335 -0.5861935953526846 3.8592320642558713 0.3465145877708578 -0.5978218981366827 -1.6445245743682062 0.5655247691280444 -0.4314133552025397 -0.5359860810080388 -0.2676249580603433 0.16823686608900723 16.632130647448967 -2.9822022253049103 0.388963154367653 -0.6867996071569861 -6.188897570766071 1.2815728771564487 -18.213603634439316 -0.6482772485854978 -13.942716687361216 4.288360340510136 -17.847126684471604 82.50098854731324 -11.241936584551029 32.14272642767637 23.85712837367193 10.702708679554753 107.39770321686831 9.382288178434912 -0.22239971728081168 -0.11195060390913145 4.5688562560924595 -0.16248053152262532 -1.6069232065493104 0.03612681353671991 0.005160498509898934 -56.23838923239042 -0.008710825285508225 -0.015825401314760342 -56.218014353667286 -38.811868801503955 -0.009979386044529599 -0.016105668152935487 0.03566236361397463 -0.04453730973497747 0.04077051162571344 0.014727371081648427 -0.022783100486122927 0.03220144235394501 -36.72674896863156 0.014616086400620905 0.02480943432363038 0.046585760656931874 -0.03026487304783224 -0.01719331259704457 0.04856278922152695 -0.02360880549084433 -0.04504320337795244 -19.791197439939403 -0.027744058562485626 0.03885571688665768 -0.03550405884047194 0.019728629723449246 0.04994401059999495 -0.04400145143040401 0.04958928951142152 -0.006871265680044507 24.062903299727875 0.01754953945452527 0.03619799989205019 28.882719769378447 0.020002427171281048 0.028789684476826328 28.893751774027304 0.0034851573837032745 -0.022852285479553997 14.643478233734367 3.267299382379585 14.9646165148255 -77.71279895149435 1.1809159976781154 -37.271386520428145 -34.81101942081841 16.14800681740085 -108.23785564318186 -12.805798241237165 3.849662025938719 -6.126741957439666 -0.4262091210241461 0.0776097534406002 -8.114878764989314 -0.017472469022237133 0.028010140560084853 44.55095359081263 -0.02839440530286857 -0.04020175551733083 44.566960617419845 12.436596621223353 -0.009827846623169665 -0.018748162933938543 0.048189688196689465 -0.04239157379958606 -0.037604870955800784 0.0309377818328063 0.02565789833696808 -0.0011693522452343797 11.13833194951179 0.008998743399232286 -0.044314256111907945 -0.01118539342585394 -0.006000258551558367 -0.03858843862320986 0.01392437098109601 -0.026640256729534226 0.00685041364469755 4.791103534153834 0.04619577852081904 0.011712738012185786 -0.03299809335131972 -0.009192956792939671 -0.0006759241193090203 0.028981648157913417 0.047593367201527285 -0.04562965267175579 -5.58201676695768 -0.016781340317601187 0.0004912890694783612 -6.741163932223485 0.018655776089921843 -0.023596279168275534 -6.7587476509734286 -0.04025608191963778 -0.01429071504860012 -0.03274923017475751 0.033273837443754145 0.043291715288242175 8.031986602026233 3.446435169498061 -19.241172641712172 -0.038013895738156674 10.371083044013034 0.05937774756239529 -5.657461445221825 -15.632593986784654 3.147155458569834 -0.04297069877386847 -0.03788579658084107 -0.02360783504791102 -0.028285911500647454 4.732576067920048 0.016503296750681233 12.472246041628777 -8.24339379128334 6.889233748887255 0.03994118649055888 46.35357911916173 -0.0353368890501757 -4.309010506520943 -14.769735402512515 -3.8009968465258996 -0.01842469394190134 -0.016771103124224307 0.04554430794643903 -0.038530829612922764 -10.723762854614135 0.000535953617261281 
-0.044858279974613724 0.038758217731073435 -0.008433928948962614 0.02836562961178071 0.04022155552814532 -0.030866296809949158 5.029638685535036 2.974993178481705 -2.178584675307771 -0.6876587647921563 3.804782620486514 0.3511347742631157 -0.6003200475789222 -1.607835889331154 0.45775397234964194 -0.35755579675690335 -0.47854605652705906 -0.2673897606538961 0.10470286340318484 16.51162186992657 -2.920630944040197 0.32885623566973365 -0.6533129300659246 -5.8196460002780865 1.2000499869382886 -18.18017165509975 -0.5444662198924974 -14.074121744335551 4.316268085799482 -17.921122688558356 83.60614956585437 -10.587674043978396 31.023511504010315 26.583517630387878 10.784720083413735 106.66707670173852 9.223386940222257 -0.27089956656773223 -0.549657962228946 4.5214589470486874 -0.14857627623384492 -1.6370808010291689 0.013336659576287492 0.006436255847205118 -56.27159340462689 -0.032038866396597206 0.014401048789327764 -56.25830260558429 -38.79476216258753 -0.003939501577332251 0.029511714842750416 -0.031105547293544453 0.016111272366799878 -0.006906680749289194 -0.005328530173147938 -0.047519509303178824 0.04599847219680777 -36.64541438303842 -0.02733379994170584 0.03398464975400285 0.001018524639417196 0.009389330811380617 -0.045556422050775286 -0.008492223530082665 0.046705480140484854 0.009345454688099941 -19.743024007756926 0.01077150332850013 0.0040916582602552685 -0.01083668466184416 -0.043640182859509664 0.030942438057260036 -0.014859585195168397 -0.028276607692373022 0.027153285770774218 24.021965603462814 0.0420798306939936 0.008823759508578895 28.91142585334733 -0.001187745121850072 0.03615881213026689 28.84430116682366 0.010978530462251895 -0.024852651195803727 14.998718483248695 3.2535961818002956 14.966313042436239 -78.23896476674291 0.06988006406266987 -37.45426122222304 -41.18554151088353 16.74689130876423 -109.45629949276538 -12.151517120068197 3.2242698252699586 -5.20625206911372 -0.48492490891334916 0.04545268729020947 -8.123723232333246 -0.00016761883384300503 -0.021207268697070212 44.60009498957242 -0.007715312721723194 -0.04139995742519951 44.6158443484318 12.44192065405562 -0.006097532545625331 -0.012938074136705032 -0.013863554249393591 0.009558653835272025 0.015954379180315982 0.019269318172074373 0.033362795774653266 0.03535264034908687 11.14729069345729 -0.013117297561379937 0.03612392675691877 -0.028941654568961236 0.0316908932480646 0.015565785238392808 -0.04440468521438835 0.019142454295961068 0.04271838725791538 4.756563767698314 0.01286197872779685 -0.010985320989900385 0.012851758061094027 -0.014464452740525597 0.03729175930960025 -0.04234780155911212 0.04334711020456256 -0.04057270879824073 -5.647086046916187 -0.008201600419764685 -0.009738507604617615 -6.7301520707561835 -0.014905796863865756 0.026931001386026335 -6.751112432939393 -0.04510067686127723 0.009432828055237657 0.019240605544755256 0.007347280181812119 -0.0062003215153046565 8.029599200231306 3.4736131734923035 -19.181833419131802 0.008082542766008697 10.420284412034993 -0.027254991254121393 -5.650677469722045 -15.64709304254338 3.239233467710249 0.008328853728780516 -0.04647191281373731 0.00864248020339144 0.03233654914848179 4.678319749150825 -0.013133878406019492 12.451166607288542 -8.197800957970655 6.914419219797958 -0.016188357343364542 46.34860490007607 -0.04629027123498001 -4.346621090280292 -14.703316833586934 -3.818263955188749 0.026300278354836934 -0.02043462327899244 0.035219762328304656 0.0037133585396299158 -10.74842772624501 -0.042226806495786015 
0.03932905118247682 -0.02399749850728197 0.0031053689786851163 0.01990846116661297 -0.010132013431150558 0.02239095831536919 5.052281650771335 3.006908239378224 -2.2566336436254657 -0.7067344554242555 3.7668017031669763 0.347873116732642 -0.6416822383710441 -1.6156751639475098 0.38515722317694423 -0.36199589428810286 -0.46603995753764477 -0.2902247525021848 0.056963990704929246 16.42691485644504 -2.8686822705137183 0.3112248850818426 -0.7444941757743986 -5.746556778994123 1.1981983374944356 -18.317349278542267 -0.5497140291999444 -14.387343699375108 4.374786213676995 -18.04069079480108 84.73447309482718 -10.836059574388369 30.617543736932838 28.322136088325056 10.490532220219789 105.6474755644407 9.272747585398873 -0.2197772347260804 -0.9261614298792871 4.528715993885227 -0.1505662627905595 -1.6032813184775496 0.029508224069241373 0.04693579545456286 -56.22616436450933 0.016863379415326993 0.026990879905365958 -56.249838379330974 -38.735915617802654 -0.04464587989101862 0.004934168271149297 0.030483495233434087 0.005822154339768801 -0.011287023465425847 0.0008294621794546123 -0.04088953142950546 0.026627290000690165 -36.70433642125159 0.00658704693094061 -0.026082860372872725 0.02158086024901973 0.00027152553573404686 -0.020517856376008153 -0.008618321731807169 0.013449338651595132 -0.004744463610106463 -19.71369251433211 -0.01197522752917726 0.04081849800286181 -0.024604475769772184 0.048471322826045105 0.01948445732087054 0.04818472532779346 0.007436627277091214 -0.040633822601603684 24.031898489724053 0.04651675137008008 0.005927042343196553 28.815580833650206 0.0014929020659343478 -0.017151322475594883 28.81885620380543 0.019549260321385813 -0.003375331247090855 15.211285760469803 3.335991250971266 14.968576952366721 -78.68974041859933 -0.9103439763241824 -36.763659151296295 -46.09294809476067 16.53343477557099 -109.95497332568542 -11.570132946050313 2.710912397587395 -4.2703093669151055 -0.4617338232028155 0.0845340731010367 -8.13140064289681 -0.019747703727780206 0.036062279909230055 44.53954786391 -0.04784007183059134 0.015182900822435222 44.56886590196878 12.489161151171702 -0.04526352562446046 -0.017271849595342455 -0.02328684435689439 0.010378400931691517 -0.03028202701832598 0.03208106761536618 0.016755326139578253 -0.04611207537476086 11.083652397269192 0.02968113971911819 0.015054681398392429 0.046086763929073765 0.03852471174101002 0.028740260151848183 0.015930504175345205 0.014178526263062183 -0.01945008596787161 4.794551437153635 0.0015016029979601157 -0.0018962741365934643 -0.010805052704291303 -0.024860411284527636 -0.032694319498748174 0.011236613709589813 0.013490979964119089 0.013961274590468338 -5.58908093622695 -0.03452166350737461 -0.019116140867244554 -6.727828233560195 -0.01940178688615697 0.024607277213255466 -6.76505784085535 0.04378669363314968 -0.006389132164991207 0.031589060641970486 -0.0008792964550092502 -0.000947102249530007 8.009622149078423 3.471814070090046 -19.19980560760033 -0.03290003429258275 10.369554103697421 0.02397341207738818 -5.59921494096402 -15.70723948004415 3.2273982335240445 0.03140638356356046 0.044292292349272476 0.021712667836747045 0.003416649456278097 4.6995779276863425 -0.0454695138876995 12.453940973617584 -8.259241469251426 6.899853925312788 0.00030500896328043643 46.38745844739228 0.011780395179533295 -4.321146537215141 -14.745325702802868 -3.8221062752242947 0.04937129438926735 -0.03989336356998383 -0.022252307735375218 -0.04247408525181904 -10.786740187614427 0.010470016246620452 
-0.04966977107290615 0.01083051364001927 0.013607860105869951 0.020247661227998644 -0.0005785590146315868 0.008707509900193651 4.862708168133927 3.157469175342729 -2.18159897162773 -0.6817731969031144 3.6824722445204623 0.3308272651291252 -0.6779552549457073 -1.5407034156366701 0.3629895927321716 -0.4091477163230947 -0.46599443505469973 -0.3356580147039854 0.06002821711788566 16.05436748750097 -2.8278548429189128 0.28117627140737733 -0.7870734377968382 -5.87380715137181 1.199691232938246 -18.363733526126644 -0.5746082383328245 -14.38777844786777 4.4118664336579 -17.847697910105225 85.79170792190124 -10.70986048106897 30.156120239805713 29.25937552929516 9.928750999087384 104.94520396456755 9.277772576288521 -0.2449102354950958 -1.4431451133751032 4.513010200030328 -0.15557930266075987 -1.5533897223528426 -0.002676610674481896 -0.002828019441090524 -56.24040292570321 0.008970027296185696 0.01381823542791929 -56.22548458884723 -38.755278574616845 -0.03257348592109387 -0.04200572238337936 -0.04941820401099849 0.014998969010335083 0.0379864379961064 0.02226027805225514 0.04165425725595061 0.009968974908427906 -36.733853838971655 0.04121745051258932 -0.004211295602168107 -0.02693737625486388 -0.02062320153404614 0.016131118538474667 -0.014963083989635776 0.02219521478817744 0.008102393020322222 -19.798264007196316 -0.03272448269156149 -0.0035387810426184842 0.008034409201655896 0.01829379358895574 0.019980214255817218 0.0318631620608915 0.007057992400742306 -0.021650872567895153 24.066382272682155 0.0038015029350087015 -0.048962589871362955 28.898574581560876 -0.010337083001069086 0.005147703720547055 28.886759752757442 -0.03437835069404728 0.007066931967574336 15.15409297485912 3.2603086852416454 14.825234612133503 -79.11796087834001 -1.2545637767212714 -35.655737315310624 -50.26298341620905 15.837667135283079 -110.05694600456576 -10.843601947945846 2.0789136815226987 -3.4015155879780057 -0.454610198458763 0.04272452067212283 -8.16702313514063 0.002607849240771118 -0.028545383748731605 44.52559428139241 0.043308034364578064 -0.008376784389078323 44.5678102344351 12.473971337963182 0.025592674932042845 0.01011767545892878 -0.00941455245696217 0.0425618107084982 -0.006967278711000506 -0.04648985889281508 0.04760067716243419 -0.022489628288439072 11.13760343735199 0.01847226275008304 -0.0134630320989649 -0.018003219965730826 0.004231851405973364 -0.012938854735030238 -0.038407282482515154 0.016751984609287673 -0.04778706592593226 4.821185686062514 0.012420304743224917 -0.0035516897165715424 -0.01598374890530649 -0.03577775670071504 0.029554318094604175 -0.036866947843457606 -0.034313043491253095 0.03293085429419324 -5.616461038476087 0.04663044682536461 -0.00856203931607168 -6.709876811666925 0.016574426302614714 0.02143405731176024 -6.687995365056102 -0.02730765924637878 -0.005137246254586895 -0.005852543143867184 -0.04264330981713605 -0.012793269090960168 8.086571244682498 3.528650920514254 -19.240305961289927 -0.035982980605390756 10.372984529583789 0.03618237355038337 -5.630880828235984 -15.638020065327014 3.179583571738721 -0.02186185671958285 -0.04038236364911508 0.01106758171032471 0.0053902085106774505 4.695889585818515 -0.023180562650659858 12.45948882343519 -8.200369493384425 6.837867584277854 0.016647964007146635 46.41622845829628 -0.019461774763646685 -4.3494692219284605 -14.733738605800829 -3.8734539630051263 -0.008138122748916135 0.002008107774079191 -0.010430453956680102 -0.02974191156638976 -10.741410047231426 0.021530873703589526 
